<svg xmlns="http://www.w3.org/2000/svg" width="61" height="61" viewBox="0 0 61 61" fill="none">
    <path d="M55.5125 28.5078C55.5125 28.2328 55.5125 27.9578 55.5125 27.6828L55.2875 26.1828L55.0625 25.2078C55.0625 24.7828 54.8625 24.3578 54.7375 23.9328C54.6125 23.5078 54.5375 23.2578 54.4125 22.9328C54.3427 22.7363 54.2843 22.536 54.2375 22.3328C54.2375 22.3328 54.2375 22.3328 54.2375 22.2078C52.9716 18.8404 51.0007 15.7823 48.4569 13.2385C45.913 10.6946 42.8549 8.72373 39.4875 7.45781C39.4875 7.45781 39.4875 7.45781 39.3625 7.45781L38.7875 7.28281L37.7375 6.95781C37.3625 6.95781 36.9625 6.75781 36.5875 6.65781L35.4375 6.40781L34.2875 6.23281C33.8875 6.23281 33.5125 6.23281 33.0875 6.08281C32.6625 5.93281 32.2125 6.08281 31.7875 6.08281L30.5125 5.88281H29.5375C29.1125 5.88281 28.6625 5.88281 28.2375 5.88281C27.8125 5.88281 27.4375 5.88281 27.0375 6.03281L25.8875 6.20781L24.7375 6.45781C24.3625 6.45781 23.9625 6.63281 23.5875 6.75781L22.5375 7.08281L21.9625 7.25781C21.9625 7.25781 21.9625 7.25781 21.8375 7.25781C18.4701 8.52373 15.412 10.4946 12.8681 13.0385C10.3243 15.5823 8.35342 18.6404 7.0875 22.0078C7.0875 22.0078 7.0875 22.0078 7.0875 22.1328C7.04075 22.336 6.98232 22.5363 6.9125 22.7328C6.9125 23.0578 6.6875 23.3828 6.5875 23.7328C6.4875 24.0828 6.3625 24.5828 6.2625 25.0078L6.0375 25.9828L5.8125 27.4828C5.8125 27.7578 5.8125 28.0328 5.8125 28.3078C5.8125 29.0828 5.8125 29.8828 5.8125 30.6828C5.8125 31.4828 5.8125 32.2828 5.8125 33.0578C5.8125 33.3328 5.8125 33.6078 5.8125 33.8828L6.0375 35.3828L6.2625 36.3578C6.2625 36.7828 6.4625 37.2078 6.5875 37.6328C6.7125 38.0578 6.7875 38.3078 6.9125 38.6328C6.98232 38.8293 7.04075 39.0296 7.0875 39.2328C7.09226 39.291 7.09226 39.3496 7.0875 39.4078C8.34241 42.7717 10.3071 45.8259 12.8481 48.3625C15.389 50.8991 18.4465 52.8586 21.8125 54.1078C21.8125 54.1078 21.8125 54.1078 21.9375 54.1078L22.5375 54.2828L23.5375 54.6078L24.8125 54.9328L25.7875 55.1578L27.2875 55.3828H28.1125C28.8875 55.3828 29.6875 55.5078 30.4875 55.5078C31.2875 55.5078 32.0875 55.5078 32.8625 55.3828H33.6875L35.1875 55.1578L36.1625 54.9328L37.4375 54.6078L38.4375 54.2828L39.0375 54.1078C39.0375 54.1078 39.0375 54.1078 39.1625 54.1078C42.5285 52.8586 45.586 50.8991 48.1269 48.3625C50.6679 45.8259 52.6326 42.7717 53.8875 39.4078C53.8827 39.3496 53.8827 39.291 53.8875 39.2328C53.8875 39.0328 54.0125 38.8328 54.0625 38.6328C54.1125 38.4328 54.2875 37.9828 54.3875 37.6328C54.4875 37.2828 54.6125 36.7828 54.7125 36.3578L54.9375 35.3828L55.1625 33.8828C55.1625 33.6078 55.1625 33.3328 55.1625 33.0578C55.1625 32.2828 55.2875 31.4828 55.2875 30.6828C55.2875 29.8828 55.5125 29.2828 55.5125 28.5078ZM39.7625 13.1078C43.4785 15.0169 46.5034 18.0418 48.4125 21.7578L41.2625 24.2578C40.226 22.5966 38.8237 21.1943 37.1625 20.1578L39.7625 13.1078ZM26.3625 11.3578C26.8875 11.2328 27.3875 11.1578 27.8875 11.0828H28.4875C29.9169 10.9328 31.3581 10.9328 32.7875 11.0828H33.3875C33.8875 11.0828 34.3875 11.2328 34.9125 11.3578H35.0625L32.5625 18.5078C31.8844 18.4036 31.1982 18.3617 30.5125 18.3828C29.9011 18.382 29.2906 18.4322 28.6875 18.5328L26.1875 11.3828L26.3625 11.3578ZM21.5125 13.1078L24.0125 20.2578C22.3422 21.2913 20.9311 22.6939 19.8875 24.3578L12.7375 21.8578C14.6298 18.1047 17.6564 15.0431 21.3875 13.1078H21.5125ZM10.9875 35.1578C10.8678 34.6646 10.7842 34.1632 10.7375 33.6578C10.7375 33.4328 10.7375 33.2328 10.7375 33.0328C10.5708 31.6043 10.5708 30.1613 10.7375 28.7328C10.7375 28.5328 10.7375 28.3328 10.7375 28.1078C10.7842 27.6024 10.8678 27.1011 10.9875 26.6078C10.9875 26.6078 10.9875 26.6078 10.9875 26.4578L18.1375 28.9578C17.9375 30.1663 17.9375 31.3994 18.1375 32.6078L10.9875 35.1078C10.9875 35.1078 10.9875 35.2078 10.9875 35.1578ZM21.3875 48.6578C17.6715 46.7487 14.6466 43.7238 12.7375 40.0078L19.8875 37.5078C20.924 39.169 22.3263 40.5714 23.9875 41.6078L21.3875 48.6578ZM34.7875 50.4078C34.2625 50.5328 33.7625 50.6078 33.2625 50.6828H32.6625C31.2331 50.8328 29.7919 50.8328 28.3625 50.6828H27.7625C27.2625 50.6828 26.7625 50.5328 26.2375 50.4078H26.0875L28.5875 43.2578C29.7959 43.4579 31.0291 43.4579 32.2375 43.2578L34.7375 50.4078H34.7875ZM33.1125 37.9078C32.6875 38.0578 32.2625 38.1578 31.8625 38.2578C31.0363 38.4117 30.1887 38.4117 29.3625 38.2578C28.9625 38.2578 28.5375 38.0578 28.1125 37.9078C27.0573 37.5434 26.0968 36.9481 25.301 36.1653C24.5052 35.3825 23.8942 34.4318 23.5125 33.3828C23.3612 32.9681 23.2441 32.5417 23.1625 32.1078C23.0026 31.2821 23.0026 30.4335 23.1625 29.6078C23.2386 29.1916 23.3472 28.782 23.4875 28.3828C23.8644 27.3461 24.4654 26.4053 25.2475 25.6275C26.0297 24.8497 26.9737 24.254 28.0125 23.8828C28.4375 23.7328 28.8625 23.6328 29.2625 23.5328C30.0887 23.3789 30.9363 23.3789 31.7625 23.5328C32.1625 23.5328 32.5875 23.7328 33.0125 23.8828C34.0466 24.2571 34.9858 24.8542 35.7635 25.6319C36.5411 26.4095 37.1382 27.3487 37.5125 28.3828C37.6638 28.7975 37.7809 29.224 37.8625 29.6578C38.0224 30.4835 38.0224 31.3321 37.8625 32.1578C37.7809 32.5917 37.6638 33.0181 37.5125 33.4328C37.1321 34.4577 36.5322 35.387 35.7549 36.1557C34.9775 36.9244 34.0416 37.5139 33.0125 37.8828L33.1125 37.9078ZM39.6375 48.6828L37.1375 41.5328C38.7987 40.4964 40.201 39.094 41.2375 37.4328L48.3875 39.9328C46.4649 43.6918 43.402 46.746 39.6375 48.6578V48.6828ZM50.5125 33.0328C50.5125 33.2328 50.5125 33.4328 50.5125 33.6578C50.4658 34.1632 50.3822 34.6646 50.2625 35.1578C50.2625 35.1578 50.2625 35.1578 50.2625 35.3078L43.1125 32.8078C43.3125 31.5994 43.3125 30.3663 43.1125 29.1578L50.2625 26.6578C50.2625 26.6578 50.2625 26.6578 50.2625 26.8078C50.3822 27.3011 50.4658 27.8024 50.5125 28.3078C50.5125 28.5328 50.5125 28.7328 50.5125 28.9328C50.6792 30.3613 50.6792 31.8043 50.5125 33.2328V33.0328Z" fill="#545E6C"/>
</svg>