<svg xmlns="http://www.w3.org/2000/svg" width="61" height="61" viewBox="0 0 61 61" fill="none">
    <path d="M45.5123 50.8828H33.0123V38.2328C38.5107 37.6181 43.5898 34.999 47.2792 30.8761C50.9686 26.7532 53.0096 21.4155 53.0123 15.8828C53.0249 12.9744 52.4554 10.0928 51.3373 7.40781C51.208 7.10777 51.0211 6.83598 50.7873 6.60781L50.5123 6.40781C50.3527 6.27637 50.1761 6.16706 49.9873 6.08281C49.7657 5.98019 49.5296 5.91271 49.2873 5.88281H49.0373H11.9873H11.7623C11.5142 5.89419 11.2695 5.94482 11.0373 6.03281C10.8555 6.13895 10.6802 6.25582 10.5123 6.38281L10.2123 6.60781C9.97842 6.83598 9.79156 7.10777 9.66226 7.40781C8.55273 10.0946 7.99173 12.9761 8.01226 15.8828C8.01489 21.4155 10.0559 26.7532 13.7453 30.8761C17.4347 34.999 22.5139 37.6181 28.0123 38.2328V50.8828H15.5123C14.8492 50.8828 14.2133 51.1462 13.7445 51.615C13.2757 52.0839 13.0123 52.7198 13.0123 53.3828C13.0123 54.0459 13.2757 54.6817 13.7445 55.1506C14.2133 55.6194 14.8492 55.8828 15.5123 55.8828H45.5123C46.1753 55.8828 46.8112 55.6194 47.28 55.1506C47.7489 54.6817 48.0123 54.0459 48.0123 53.3828C48.0123 52.7198 47.7489 52.0839 47.28 51.615C46.8112 51.1462 46.1753 50.8828 45.5123 50.8828ZM13.0123 15.8828C13.0076 14.1896 13.2519 12.5049 13.7373 10.8828H47.2873C47.7727 12.5049 48.0169 14.1896 48.0123 15.8828C48.0123 20.5241 46.1685 24.9753 42.8866 28.2572C39.6047 31.5391 35.1536 33.3828 30.5123 33.3828C25.871 33.3828 21.4198 31.5391 18.1379 28.2572C14.856 24.9753 13.0123 20.5241 13.0123 15.8828Z" fill="#545E6C"/>
</svg>