<svg xmlns="http://www.w3.org/2000/svg" width="64" height="32" viewBox="0 0 64 32" fill="none">
    <g clip-path="url(#clip0_1174_2279)">
        <path d="M19.0159 2.65704C19.0159 3.15053 18.8233 3.63552 18.4383 4.00989L6.25603 15.8537L18.4383 27.6976C19.2084 28.4463 19.2084 29.6545 18.4383 30.4033C17.6681 31.152 16.4254 31.152 15.6553 30.4033L2.08151 17.2066C1.31137 16.4578 1.31137 15.2496 2.08151 14.5009L15.6553 1.30419C16.4254 0.555436 17.6681 0.555436 18.4383 1.30419C18.8233 1.67856 19.0159 2.16354 19.0159 2.65704Z" fill="#7A7A7A"/>
        <path d="M61.7228 15.8551C61.7228 16.9102 60.8389 17.7695 59.7537 17.7695L4.86364 17.7695C3.77844 17.7695 2.89453 16.9102 2.89453 15.8551C2.89453 14.8001 3.77844 13.9407 4.86364 13.9407L59.7537 13.9407C60.8477 13.9407 61.7228 14.8001 61.7228 15.8551Z" fill="#7A7A7A"/>
    </g>
    <defs>
        <clipPath id="clip0_1174_2279">
            <rect width="32" height="64" fill="white" transform="translate(0 32) rotate(-90)"/>
        </clipPath>
    </defs>
</svg>