<svg xmlns="http://www.w3.org/2000/svg" width="120" height="121" viewBox="0 0 120 121" fill="none">
    <path d="M107.936 97.9763L91.2553 81.2955C96.8156 73.6749 99.8215 64.5159 99.8215 54.9054C99.8215 42.91 95.1503 31.6342 86.6688 23.1527C78.1732 14.6712 66.8974 10 54.9019 10C42.9064 10 31.6307 14.6712 23.1351 23.1527C5.62165 40.6661 5.62165 69.1589 23.1351 86.6723C31.6166 95.1538 42.8923 99.825 54.8878 99.825C64.4983 99.825 73.6572 96.8191 81.2779 91.2588L97.9728 107.94C99.3417 109.308 101.148 110 102.954 110C104.761 110 106.567 109.308 107.936 107.94C110.688 105.188 110.688 100.728 107.936 97.9763ZM54.9019 85.7409C46.6744 85.7409 38.9268 82.5374 33.1125 76.709C21.0888 64.6853 21.0888 45.1397 33.1125 33.116C38.9409 27.2876 46.6744 24.0841 54.916 24.0841C63.1576 24.0841 70.8912 27.2876 76.7055 33.116C82.5198 38.9444 85.7374 46.678 85.7374 54.9054C85.7374 63.1329 82.5339 70.8806 76.7055 76.709C70.8771 82.5374 63.1435 85.7409 54.9019 85.7409Z" fill="black" fill-opacity="0.3"/>
</svg>