<svg xmlns="http://www.w3.org/2000/svg" width="80" height="81" viewBox="0 0 80 81" fill="none">
    <path d="M28.9991 68.1626H34.7466C37.1988 68.1626 39.1146 66.1694 39.1146 63.7929V24.6196C39.1146 22.1665 37.1222 20.25 34.7466 20.25H28.9991C26.5469 20.25 24.631 22.2432 24.631 24.6196V63.7929C24.5544 66.1694 26.5469 68.1626 28.9991 68.1626Z" stroke="white" stroke-width="6" stroke-miterlimit="10" stroke-linecap="round" stroke-linejoin="round"/>
    <path d="M62.2616 67.8588L67.0128 65.9423C69.4651 64.9457 70.6145 62.186 69.6183 59.8095L52.5292 17.3398C51.533 14.8867 48.7742 13.7368 46.3986 14.7334L41.6473 16.6499C39.1951 17.6465 38.0456 20.4062 39.0418 22.7827L56.1309 65.2524C57.0505 67.6288 59.8093 68.7787 62.2616 67.8588Z" stroke="white" stroke-width="6" stroke-miterlimit="10" stroke-linecap="round" stroke-linejoin="round"/>
    <path d="M14.7473 68.164H19.8817C22.4872 68.164 24.633 66.0175 24.633 63.4111V17.7217C24.5563 15.1152 22.4106 12.9688 19.8051 12.9688H14.7473C12.1418 12.9688 9.99609 15.1152 9.99609 17.7217V63.4877C9.99609 66.0175 12.1418 68.164 14.7473 68.164Z" stroke="white" stroke-width="6" stroke-miterlimit="10" stroke-linecap="round" stroke-linejoin="round"/>
</svg>