<svg xmlns="http://www.w3.org/2000/svg" width="69" height="68" viewBox="0 0 69 68" fill="none">
    <path d="M14.6416 11.3059C14.078 11.3061 13.5272 11.4743 13.0597 11.7891C12.5921 12.104 12.2291 12.5511 12.017 13.0733C11.8049 13.5955 11.7534 14.1691 11.869 14.7208C11.9846 15.2724 12.2621 15.7771 12.6661 16.1702L30.4961 34.0003L12.6661 51.8303C12.3941 52.0914 12.177 52.4041 12.0275 52.7502C11.8779 53.0962 11.7989 53.4686 11.7951 53.8455C11.7912 54.2225 11.8627 54.5964 12.0051 54.9454C12.1476 55.2944 12.3583 55.6115 12.6249 55.878C12.8914 56.1446 13.2085 56.3553 13.5575 56.4978C13.9065 56.6402 14.2804 56.7117 14.6574 56.7078C15.0343 56.704 15.4067 56.625 15.7527 56.4754C16.0988 56.3259 16.4115 56.1088 16.6726 55.8368L34.5026 38.0068L52.3327 55.8368C52.5938 56.1088 52.9065 56.3259 53.2525 56.4754C53.5986 56.625 53.971 56.704 54.3479 56.7078C54.7249 56.7117 55.0988 56.6403 55.4478 56.4978C55.7968 56.3553 56.1139 56.1446 56.3804 55.878C56.647 55.6115 56.8577 55.2944 57.0002 54.9454C57.1426 54.5964 57.2141 54.2225 57.2102 53.8455C57.2064 53.4686 57.1274 53.0962 56.9778 52.7502C56.8283 52.4041 56.6112 52.0914 56.3392 51.8303L38.5091 34.0003L56.3392 16.1702C56.7487 15.7722 57.0283 15.2598 57.1415 14.7002C57.2547 14.1405 57.1962 13.5598 56.9737 13.0339C56.7512 12.5081 56.375 12.0618 55.8944 11.7534C55.4139 11.4451 54.8514 11.2891 54.2806 11.3059C53.5445 11.3279 52.8459 11.6355 52.3327 12.1637L34.5026 29.9937L16.6726 12.1637C16.4085 11.8922 16.0928 11.6765 15.7439 11.5292C15.3951 11.3819 15.0203 11.3059 14.6416 11.3059Z" fill="#7A7A7A"/>
</svg>