<svg xmlns="http://www.w3.org/2000/svg" width="120" height="121" viewBox="0 0 120 121" fill="none">
    <path d="M89.5575 22.3889C81.5223 14.4024 70.8513 10 59.5 10C48.1487 10 37.4777 14.4024 29.4567 22.3889C21.4215 30.3894 17 41.0145 17 52.3169C17 63.6193 21.4215 74.2444 29.4425 82.245L55.7729 113.462C56.7649 114.45 58.097 115 59.4858 115C60.8746 115 62.2209 114.45 63.1987 113.462L89.5575 82.245C97.5927 74.2585 102.014 63.6334 102.014 52.3169C102 41.0145 97.5785 30.3894 89.5575 22.3889ZM49.8918 42.7501C52.4568 40.1961 55.8721 38.7851 59.5 38.7851C63.1279 38.7851 66.5432 40.1961 69.1082 42.7501C71.6732 45.3041 73.0904 48.7047 73.0904 52.3169C73.0904 55.9292 71.6732 59.3298 69.1082 61.8837C66.5432 64.4377 63.1279 65.8487 59.5 65.8487C55.8721 65.8487 52.4568 64.4377 49.8918 61.8837C47.3268 59.3298 45.9096 55.9292 45.9096 52.3169C45.9096 48.7047 47.3268 45.3041 49.8918 42.7501Z" fill="#BDB2A7"/>
</svg>