<svg width="152" height="152" viewBox="0 0 152 152" fill="none" xmlns="http://www.w3.org/2000/svg">
<path d="M96.8462 65.6315V54.4615C96.8462 43.1797 87.6665 34 76.3846 34C65.1028 34 55.9231 43.1797 55.9231 54.4615V65.6357C48.3674 68.6467 43 76 43 84.6154V97.5385C43 108.82 52.1797 118 63.4615 118H89.3077C100.59 118 109.769 108.82 109.769 97.5385V84.6154C109.769 76 104.402 68.6425 96.8462 65.6315ZM62.3846 54.4615C62.3846 46.7422 68.6652 40.4615 76.3846 40.4615C84.104 40.4615 90.3846 46.7422 90.3846 54.4615V64.2616C90.0185 64.2401 89.6782 64.1538 89.3077 64.1538H63.4615C63.0911 64.1538 62.7508 64.2444 62.3846 64.2616V54.4615ZM103.308 97.5385C103.308 105.258 97.0271 111.538 89.3077 111.538H63.4615C55.7422 111.538 49.4615 105.258 49.4615 97.5385V84.6154C49.4615 76.896 55.7422 70.6154 63.4615 70.6154H89.3077C97.0271 70.6154 103.308 76.896 103.308 84.6154V97.5385ZM79.6154 88.9231V93.2308C79.6154 95.0142 78.168 96.4615 76.3846 96.4615C74.6012 96.4615 73.1538 95.0142 73.1538 93.2308V88.9231C73.1538 87.1397 74.6012 85.6923 76.3846 85.6923C78.168 85.6923 79.6154 87.1397 79.6154 88.9231Z" fill="#7A7A7A"/>
</svg>
