<svg width="152" height="152" viewBox="0 0 152 152" fill="none" xmlns="http://www.w3.org/2000/svg">
<path d="M88.3169 78.3668C91.5848 75.7956 93.9702 72.2698 95.141 68.2799C96.3118 64.29 96.2099 60.0343 94.8495 56.105C93.489 52.1757 90.9377 48.7681 87.5504 46.3563C84.1631 43.9445 80.1084 42.6484 75.9502 42.6484C71.792 42.6484 67.7372 43.9445 64.35 46.3563C60.9627 48.7681 58.4113 52.1757 57.0509 56.105C55.6905 60.0343 55.5886 64.29 56.7594 68.2799C57.9302 72.2698 60.3155 75.7956 63.5835 78.3668C57.9838 80.6102 53.0978 84.3313 49.4465 89.1331C45.7952 93.935 43.5154 99.6378 42.8502 105.633C42.802 106.071 42.8406 106.514 42.9636 106.937C43.0866 107.36 43.2917 107.754 43.5672 108.098C44.1236 108.792 44.9328 109.236 45.8169 109.333C46.7009 109.431 47.5874 109.173 48.2813 108.616C48.9752 108.06 49.4196 107.251 49.5169 106.367C50.2488 99.8507 53.3558 93.8328 58.2442 89.4627C63.1327 85.0927 69.4599 82.6769 76.0169 82.6769C82.5739 82.6769 88.901 85.0927 93.7895 89.4627C98.6779 93.8328 101.785 99.8507 102.517 106.367C102.607 107.186 102.998 107.942 103.614 108.49C104.229 109.038 105.026 109.338 105.85 109.333H106.217C107.091 109.233 107.889 108.791 108.439 108.104C108.988 107.417 109.244 106.541 109.15 105.667C108.482 99.6541 106.19 93.9367 102.52 89.1274C98.8496 84.3182 93.9399 80.5984 88.3169 78.3668ZM75.9502 76.0001C73.3131 76.0001 70.7352 75.2181 68.5426 73.753C66.3499 72.2879 64.641 70.2056 63.6318 67.7692C62.6226 65.3329 62.3586 62.652 62.873 60.0656C63.3875 57.4791 64.6574 55.1034 66.5221 53.2387C68.3868 51.374 70.7626 50.1041 73.349 49.5896C75.9354 49.0752 78.6163 49.3392 81.0526 50.3484C83.489 51.3575 85.5714 53.0665 87.0364 55.2592C88.5015 57.4518 89.2835 60.0297 89.2835 62.6668C89.2835 66.203 87.8788 69.5944 85.3783 72.0949C82.8778 74.5953 79.4864 76.0001 75.9502 76.0001Z" fill="#7A7A7A"/>
</svg>
