<svg width="96" height="96" viewBox="0 0 96 96" fill="none" xmlns="http://www.w3.org/2000/svg">
<g clip-path="url(#clip0_6289_9733)">
<circle cx="48" cy="48" r="48" fill="#D7D7D7"/>
<g clip-path="url(#clip1_6289_9733)">
<path d="M38.7488 55.5723V69.6513L22.2871 75.6243L48.3252 97.5141L73.7135 75.6243L57.2518 69.6513V55.5723H38.7488Z" fill="#F5CCC1"/>
<path d="M38.5056 17.3977C44.5179 13.6695 52.1252 13.6695 58.1375 17.3977C64.6946 21.4606 68.0684 29.1467 66.6244 36.7211L64.1302 49.8222C63.29 54.2199 60.4414 57.9678 56.4244 59.9434L53.4642 61.4006C50.2283 62.9955 46.4279 62.9955 43.192 61.4006L40.2318 59.9434C36.2083 57.9678 33.3531 54.2199 32.5195 49.8222L30.0253 36.7211C28.5747 29.1467 31.9485 21.4672 38.5056 17.3977Z" fill="#F5CCC1"/>
<path d="M42.582 39.3135V40.5803" stroke="#300021" stroke-width="3" stroke-miterlimit="10" stroke-linecap="round"/>
<path d="M54.0615 39.3135V40.5803" stroke="#300021" stroke-width="3" stroke-miterlimit="10" stroke-linecap="round"/>
<path d="M40.0938 34.9886C40.5335 34.7917 41.2621 34.667 42.076 34.667C42.8899 34.667 43.6053 34.7917 44.0451 34.9886" stroke="#300021" stroke-width="2" stroke-miterlimit="10" stroke-linecap="round"/>
<path d="M56.549 34.9886C56.1092 34.7917 55.3807 34.667 54.5668 34.667C53.7529 34.667 53.0374 34.7917 52.5977 34.9886" stroke="#300021" stroke-width="2" stroke-miterlimit="10" stroke-linecap="round"/>
<path d="M52.5974 49.0869C51.6457 49.7236 50.0704 50.1371 48.3113 50.1371C46.5522 50.1371 44.9967 49.7236 44.0449 49.0869" stroke="#C0655E" stroke-width="2" stroke-miterlimit="10" stroke-linecap="round" stroke-linejoin="round"/>
<path d="M56.4182 59.9434L53.458 61.4005C50.2221 62.9955 46.4217 62.9955 43.1858 61.4005L40.2256 59.9434" stroke="#C0655E" stroke-width="1.2" stroke-miterlimit="10" stroke-linecap="round" stroke-linejoin="round"/>
<path d="M89 87.8196V102.142H7V87.8196C7 81.8401 11.1482 76.6614 16.9834 75.3618L38.7485 69.6514L48.0033 76.11L57.2581 69.6514L79.0232 75.3618C84.8518 76.6614 89 81.8401 89 87.8196Z" fill="#5996EE"/>
<path d="M48.3245 45.6743C49.2053 45.6743 49.9194 45.2658 49.9194 44.762C49.9194 44.2581 49.2053 43.8496 48.3245 43.8496C47.4436 43.8496 46.7295 44.2581 46.7295 44.762C46.7295 45.2658 47.4436 45.6743 48.3245 45.6743Z" fill="#DD7766"/>
<path d="M56.4901 24.8408L45.6797 24.4732L48.3248 21.5524L56.4179 21.1914L56.4901 24.8408Z" fill="#300021"/>
<path d="M35.7885 42.0241C36.2808 45.2075 34.6071 48.1152 32.0407 48.509C29.4743 48.9028 26.9932 46.6515 26.5009 43.4681C26.0086 40.2847 27.6824 37.377 30.2488 36.9832C32.8152 36.5894 35.2962 38.8407 35.7885 42.0241Z" fill="#F5CCC1"/>
<path d="M31.6539 46.0018C31.5883 46.015 31.5226 46.015 31.457 46.015C30.4987 46.015 29.2975 44.8926 29.0153 43.0744C28.8643 42.1161 29.0219 41.1644 29.4288 40.449C29.6126 40.1339 30.013 39.5826 30.6431 39.4907C30.7087 39.4775 30.7744 39.4775 30.84 39.4775" stroke="#C0655E" stroke-width="1.2" stroke-miterlimit="10" stroke-linecap="round" stroke-linejoin="round"/>
<path d="M66.2639 38.6049C66.2639 38.6049 69.6442 34.1022 67.6948 25.2741C66.9465 21.9069 65.3121 19.7737 63.4809 18.415C63.4809 18.415 63.4677 18.4019 63.4481 18.3888C63.4415 18.3888 63.4415 18.3822 63.4349 18.3822C62.8705 17.949 56.1296 13 48.3253 13C40.5146 13 33.7737 17.9556 33.2092 18.3757L33.2026 18.3822C33.1829 18.3953 33.1698 18.4085 33.1698 18.4085C31.3386 19.7671 29.6976 21.9069 28.9559 25.2675C27 34.0957 30.3868 38.5983 30.3868 38.5983C30.3868 38.5983 33.4324 37.0427 34.4497 32.6123C34.4497 32.6123 41.8076 34.8374 44.7219 28.6478C47.6362 22.4517 53.5435 22.3598 56.4971 24.8343C56.4971 24.8343 56.3987 26.6459 58.8797 28.7397C61.3477 30.8401 61.5577 43.9805 66.2639 38.6049Z" fill="#642718"/>
<path d="M60.8554 42.0241C60.3631 45.2075 62.0369 48.1152 64.6033 48.509C67.1697 48.9028 69.6507 46.6515 70.143 43.4681C70.6353 40.2847 68.9615 37.377 66.3951 36.9832C63.8288 36.5894 61.3543 38.8407 60.8554 42.0241Z" fill="#F5CCC1"/>
<path d="M64.9971 46.0018C65.0627 46.015 65.1283 46.015 65.194 46.015C66.1523 46.015 67.3534 44.8926 67.6357 43.0744C67.7866 42.1161 67.6291 41.1644 67.2222 40.449C67.0384 40.1339 66.638 39.5826 66.0079 39.4907C65.9422 39.4775 65.8766 39.4775 65.811 39.4775" stroke="#C0655E" stroke-width="1.2" stroke-miterlimit="10" stroke-linecap="round" stroke-linejoin="round"/>
<path d="M60.1719 23.6133C62.0163 26.4816 63.2043 29.7634 63.6375 33.1437" stroke="#300021" stroke-width="1.2" stroke-miterlimit="10" stroke-linecap="round"/>
<path d="M63.4473 23.8887C64.4449 25.6609 65.0422 27.6562 65.1866 29.6844" stroke="#300021" stroke-width="1.2" stroke-miterlimit="10" stroke-linecap="round"/>
<path d="M34.2979 25.8652C35.1774 23.1084 36.9693 20.6536 39.3256 18.9733C41.682 17.293 44.5831 16.3938 47.4777 16.4594" stroke="#91483A" stroke-width="1.2" stroke-miterlimit="10" stroke-linecap="round"/>
<path d="M40.291 24.677C42.457 21.2311 46.3493 18.9273 50.4122 18.7041" stroke="#91483A" stroke-width="1.2" stroke-miterlimit="10" stroke-linecap="round"/>
<path d="M38.7422 66.2314L32.5986 71.0754L40.2453 86.953L47.997 75.821L38.7422 69.2442V66.2314Z" fill="#F6EFEE"/>
<path d="M57.2453 66.2314L63.3955 71.0754L55.7488 86.953L47.9971 75.821L57.2453 69.2442V66.2314Z" fill="#F6EFEE"/>
</g>
</g>
<defs>
<clipPath id="clip0_6289_9733">
<rect width="96" height="96" rx="48" fill="white"/>
</clipPath>
<clipPath id="clip1_6289_9733">
<rect width="82" height="89.1413" fill="white" transform="translate(7 13)"/>
</clipPath>
</defs>
</svg>
