<svg xmlns="http://www.w3.org/2000/svg" width="120" height="121" viewBox="0 0 120 121" fill="none">
    <path d="M34.2423 85.3328H85.7591H94.4229H103.298C97.0474 82.6236 95.0155 69.7551 94.4229 64.2521V52.4418C94.4229 35.9751 82.8524 22.2035 67.3875 18.8312C67.4016 18.6901 67.4157 18.549 67.4157 18.4079C67.4157 14.3159 64.0998 11 60.0078 11C55.9158 11 52.5998 14.3159 52.5998 18.4079C52.5998 18.549 52.6139 18.6901 52.6281 18.8312C37.1631 22.1894 25.5785 35.961 25.5785 52.4277V64.238C24.9859 69.741 22.9681 82.6236 16.7031 85.3328H25.5785H34.2423Z" fill="#121212"/>
    <path d="M105.344 88.5781H14.6564C12.0883 88.5781 10 90.6664 10 93.2345C10 95.8026 12.0883 97.8909 14.6564 97.8909H46.5458C47.59 104.396 53.2059 109.363 59.9929 109.363C66.78 109.363 72.3959 104.396 73.4401 97.8909H105.344C107.912 97.8909 110 95.8026 110 93.2345C110 90.6664 107.912 88.5781 105.344 88.5781Z" fill="#121212"/>
</svg>