<svg width="104" height="104" viewBox="0 0 104 104" fill="none" xmlns="http://www.w3.org/2000/svg">
<rect width="104" height="104" rx="52" fill="#A17962"/>
<g clip-path="url(#clip0_1174_1624)">
<path d="M42.2776 53.9374C39.7216 51.9263 37.8559 49.1686 36.9401 46.0478C36.0243 42.9271 36.104 39.5985 37.1681 36.5251C38.2322 33.4518 40.2277 30.7865 42.8771 28.9001C45.5265 27.0137 48.698 26 51.9503 26C55.2027 26 58.3741 27.0137 61.0235 28.9001C63.6729 30.7865 65.6685 33.4518 66.7325 36.5251C67.7966 39.5985 67.8763 42.9271 66.9606 46.0478C66.0448 49.1686 64.1791 51.9263 61.623 53.9374C66.0029 55.6921 69.8245 58.6025 72.6804 62.3584C75.5363 66.1142 77.3194 70.5746 77.8397 75.2642C77.8774 75.6066 77.8473 75.953 77.751 76.2838C77.6548 76.6145 77.4944 76.923 77.2789 77.1918C76.8437 77.7345 76.2108 78.0821 75.5193 78.1582C74.8279 78.2342 74.1345 78.0325 73.5918 77.5973C73.0491 77.1622 72.7014 76.5292 72.6254 75.8378C72.0529 70.7412 69.6227 66.0342 65.7992 62.6162C61.9756 59.1981 57.0268 57.3085 51.8982 57.3085C46.7696 57.3085 41.8207 59.1981 37.9972 62.6162C34.1737 66.0342 31.7435 70.7412 31.171 75.8378C31.1001 76.4784 30.7944 77.0701 30.313 77.4986C29.8315 77.9271 29.2083 78.1621 28.5638 78.1582H28.277C27.5936 78.0795 26.9689 77.734 26.5392 77.1968C26.1094 76.6596 25.9094 75.9743 25.9827 75.2903C26.5054 70.5874 28.2982 66.1155 31.1688 62.3539C34.0394 58.5923 37.8795 55.6828 42.2776 53.9374ZM51.9503 52.0863C54.0129 52.0863 56.0292 51.4746 57.7442 50.3287C59.4592 49.1828 60.7959 47.554 61.5852 45.6484C62.3746 43.7428 62.5811 41.6459 62.1787 39.6229C61.7763 37.5999 60.7831 35.7417 59.3246 34.2832C57.8661 32.8247 56.0079 31.8315 53.9849 31.4291C51.9619 31.0267 49.865 31.2332 47.9594 32.0226C46.0538 32.8119 44.425 34.1486 43.2791 35.8636C42.1332 37.5786 41.5215 39.5949 41.5215 41.6575C41.5215 44.4234 42.6203 47.076 44.5761 49.0317C46.5318 50.9875 49.1844 52.0863 51.9503 52.0863Z" fill="white"/>
</g>
<defs>
<clipPath id="clip0_1174_1624">
<rect width="52.1739" height="52.1739" fill="white" transform="matrix(-1 0 0 1 78 26)"/>
</clipPath>
</defs>
</svg>
