<svg xmlns="http://www.w3.org/2000/svg" width="120" height="121" viewBox="0 0 120 121" fill="none">
    <path d="M104.501 20.3006H89.9862V14.7129C89.9862 12.1166 87.8846 10 85.3067 10C82.7288 10 80.6272 12.1024 80.6272 14.7129V20.3006H38.5395V14.7129C38.5395 12.1166 36.4379 10 33.86 10C31.282 10 29.1804 12.1024 29.1804 14.7129V20.3006H14.6795C12.0876 20.3006 10 22.403 10 25.0134V105.287C10 107.883 12.0876 110 14.6795 110H104.501C107.079 110 109.181 107.898 109.181 105.287V25.0134C109.167 22.403 107.079 20.3006 104.501 20.3006ZM99.8216 100.574H19.359V42.9759H99.8216V100.574Z" fill="black" fill-opacity="0.3"/>
    <path d="M39.3936 69.8137L48.0241 76.1351L44.7316 86.3651C44.1852 88.0443 44.7876 89.8786 46.2027 90.9228C47.6178 91.9528 49.5372 91.9528 50.9523 90.9228L59.5968 84.6013L68.2413 90.9228C68.9418 91.4449 69.7825 91.6989 70.6231 91.6989C71.4637 91.6989 72.2904 91.4449 73.0049 90.9228C74.42 89.8927 75.0084 88.0443 74.476 86.3651L71.1835 76.1351L79.828 69.8137C81.2431 68.7837 81.8315 66.9352 81.2991 65.2561C80.7527 63.5769 79.2116 62.4481 77.4462 62.4481H66.7702L63.4777 52.2181C62.9313 50.539 61.3901 49.4102 59.6388 49.4102C57.8875 49.4102 56.3323 50.5531 55.7859 52.2181L52.4934 62.4481H41.8174C40.0661 62.4481 38.5109 63.591 37.9645 65.2561C37.3761 66.9352 37.9645 68.7695 39.3936 69.8137Z" fill="black" fill-opacity="0.3"/>
</svg>