<svg width="104" height="104" viewBox="0 0 104 104" fill="none" xmlns="http://www.w3.org/2000/svg">
<g clip-path="url(#clip0_1174_2609)">
<circle cx="52" cy="52" r="52" transform="matrix(-1 0 0 1 104 0)" fill="#D7D7D7"/>
<g clip-path="url(#clip1_1174_2609)">
<path d="M72.9984 30.6602C72.9984 30.6602 85.552 64.8811 63.2784 75.2601L55.14 72.0377L51.0609 58.0343C51.0609 58.0343 67.9374 32.6635 67.9374 32.8019C67.9374 32.9402 72.9984 30.6602 72.9984 30.6602Z" fill="#642718"/>
<path d="M30.3527 30.6602C30.3527 30.6602 17.7991 64.8811 40.0727 75.2601L48.2112 72.0377L52.2969 58.0343C52.2969 58.0343 35.4203 32.6635 35.4203 32.8019C35.4203 32.9402 30.3527 30.6602 30.3527 30.6602Z" fill="#642718"/>
<path d="M61.293 58.8789V73.0207L77.8203 79.0108L51.6785 100.988L26.1824 79.0108L42.7097 73.0207V58.8789H61.293Z" fill="#F5CCC1"/>
<path d="M61.5371 20.5612C55.5008 16.8182 47.8632 16.8182 41.8269 20.5612C35.2437 24.6403 31.8565 32.357 33.3063 39.9616L36.0344 51.8497C37.0625 56.344 39.8829 60.2188 43.8368 62.5845L46.5255 64.1924C49.6952 66.0903 53.6556 66.0903 56.8319 64.1924L59.5206 62.5845C63.4745 60.2188 66.2949 56.344 67.323 51.8497L70.0511 39.9616C71.5009 32.3504 68.1137 24.6403 61.5371 20.5612Z" fill="#F5CCC1"/>
<path d="M57.4375 42.5586V43.8304" stroke="#300021" stroke-width="3" stroke-miterlimit="10" stroke-linecap="round"/>
<path d="M45.9141 42.5586V43.8304" stroke="#300021" stroke-width="3" stroke-miterlimit="10" stroke-linecap="round"/>
<path d="M59.8906 38.7932C59.4557 38.5889 58.7242 38.4439 57.9137 38.4241C57.0965 38.4044 56.3717 38.5164 55.9301 38.7009" stroke="#642718" stroke-width="2" stroke-miterlimit="10" stroke-linecap="round" stroke-linejoin="round"/>
<path d="M43.4692 38.7932C43.9041 38.5889 44.6356 38.4439 45.4462 38.4241C46.2633 38.4044 46.9882 38.5164 47.4297 38.7009" stroke="#642718" stroke-width="2" stroke-miterlimit="10" stroke-linecap="round" stroke-linejoin="round"/>
<path d="M47.4942 52.3672C48.4234 53.0064 49.9654 53.4216 51.6853 53.4216C53.4053 53.4216 54.9275 53.0064 55.8633 52.3672" stroke="#C0655E" stroke-width="2" stroke-miterlimit="10" stroke-linecap="round" stroke-linejoin="round"/>
<path d="M50.0708 48.0254C50.0708 48.5328 50.7891 48.9413 51.6721 48.9413C52.5551 48.9413 53.2734 48.5328 53.2734 48.0254C53.2734 47.5179 52.5551 47.1094 51.6721 47.1094C50.7891 47.1094 50.0708 47.5179 50.0708 48.0254Z" fill="#DD7766"/>
<path d="M69.4773 46.0037C69.4773 46.0037 66.9139 43.9872 66.5778 40.007C66.2417 36.0267 63.474 31.4336 63.474 31.4336L70.3801 31.717C70.3801 31.7235 72.9172 36.3628 69.4773 46.0037Z" fill="#642718"/>
<path d="M33.8792 46.0045C33.8792 46.0045 36.4426 43.988 36.7787 40.0077C37.1148 36.0275 40.4492 29.9648 40.4492 29.9648L32.9764 31.7111C32.9698 31.7243 30.4393 36.3636 33.8792 46.0045Z" fill="#642718"/>
<path d="M43.8357 62.582L46.5244 64.19C49.6941 66.0878 53.6546 66.0878 56.8309 64.19L59.5195 62.582" stroke="#C0655E" stroke-width="1.2" stroke-miterlimit="10" stroke-linecap="round" stroke-linejoin="round"/>
<path d="M61.293 72.7461L52.0013 84.2981L42.7096 72.7461L20.8578 78.4792C14.9994 79.784 10.8346 84.9834 10.8346 90.9867V105.366H93.168V90.9867C93.168 84.9834 89.0032 79.7906 83.1448 78.4792L61.293 72.7461Z" fill="#E97659"/>
<path d="M66.8672 39.1313C66.8672 39.1313 56.363 38.1692 53.2856 27.1378L51.0582 17.7539L64.7716 28.4426L66.8672 39.1313Z" fill="#642718"/>
<path d="M32.0721 44.6384C34.563 47.7422 35.9732 39.7685 35.9732 39.7685C35.9732 39.7685 36.9617 34.8328 38.5828 32.2298C38.9123 31.696 39.4263 31.1688 40.0787 30.6614H40.0853C42.6092 28.7108 47.2353 27.149 51.6768 27.149C52.1381 27.149 52.5994 27.1688 53.0607 27.2017C58.2139 27.5576 63.2815 29.8377 64.7708 32.2298C66.3985 34.8328 67.3804 39.7685 67.3804 39.7685C67.3804 39.7685 68.7906 47.7422 71.2816 44.6384C73.7725 41.5346 74.8598 33.1458 71.7956 27.7157C68.7313 22.2857 61.1793 15.0237 55.8877 14.1736C54.036 13.8771 52.6719 14.3054 51.6768 14.9842C50.6817 14.3054 49.3242 13.8771 47.4659 14.1736C42.1809 15.0237 34.6223 22.2857 31.5647 27.7157C28.5004 33.1458 29.5877 41.5346 32.0721 44.6384Z" fill="#642718"/>
<path d="M65.8018 45.0277C65.156 48.1843 66.1643 51.1826 68.049 51.723C69.9336 52.2634 71.9831 50.1414 72.6289 46.9783C73.2747 43.8218 72.2664 40.8234 70.3818 40.2831C68.4971 39.7427 66.4476 41.8712 65.8018 45.0277Z" fill="#F5CCC1"/>
<path d="M68.5547 49.2371C68.6008 49.2503 68.6536 49.2568 68.7063 49.2634C69.418 49.3162 70.4196 48.2552 70.7887 46.4562C70.9798 45.5072 70.9534 44.5385 70.703 43.8005C70.591 43.471 70.3406 42.9043 69.8793 42.7725C69.8331 42.7593 69.7804 42.7527 69.7277 42.7461" stroke="#C0655E" stroke-width="1.2" stroke-miterlimit="10" stroke-linecap="round" stroke-linejoin="round"/>
<path d="M30.652 46.556C30.1478 43.3636 31.3012 40.529 33.2282 40.2246C35.1551 39.9203 37.1259 42.2616 37.6301 45.454C38.1343 48.6464 36.9809 51.4811 35.0539 51.7854C33.127 52.0897 31.1562 49.7484 30.652 46.556Z" fill="#F5CCC1"/>
<path d="M34.8008 49.2371C34.7547 49.2503 34.7019 49.2568 34.6492 49.2634C33.9375 49.3162 32.9359 48.2552 32.5668 46.4562C32.3757 45.5072 32.4021 44.5385 32.6525 43.8005C32.7645 43.471 33.0149 42.9043 33.4762 42.7725C33.5224 42.7593 33.5751 42.7527 33.6212 42.7461" stroke="#C0655E" stroke-width="1.2" stroke-miterlimit="10" stroke-linecap="round" stroke-linejoin="round"/>
<path d="M40.0805 30.6605H40.0871C42.611 28.7099 47.2371 27.1481 51.6786 27.1481C52.1399 27.1481 52.6012 27.1679 53.0625 27.2008L53.0164 26.7461C53.0164 26.7461 51.9686 23.2403 49.7939 22.8252C47.6193 22.4034 41.8598 26.7725 40.0805 30.6605Z" fill="#300021"/>
<path d="M65.7617 35.7607C65.7617 35.7607 59.5607 32.8545 57.6628 27.7342C55.7715 22.614 53.2806 21.5859 53.2806 21.5859" stroke="#300021" stroke-width="1.2" stroke-miterlimit="10" stroke-linecap="round"/>
<path d="M64.9883 30.9063C64.9883 30.9063 61.0542 28.6328 60.0986 25.4499C59.1431 22.2736 57.5088 21.2852 57.5088 21.2852" stroke="#300021" stroke-width="1.2" stroke-miterlimit="10" stroke-linecap="round"/>
<path d="M37.2188 28.0312C36.1314 30.0148 35.4593 32.229 35.2682 34.4761" stroke="#300021" stroke-width="1.2" stroke-miterlimit="10" stroke-linecap="round"/>
<path d="M33.7344 29.5078C33.1874 31.6495 32.9963 33.8835 33.1874 36.0911" stroke="#300021" stroke-width="1.2" stroke-miterlimit="10" stroke-linecap="round"/>
<path d="M61.2928 68.4414C61.2928 68.4414 66.3933 69.0345 70.3867 75.4069L60.6733 88.8501C59.7376 90.1483 57.866 90.3065 56.726 89.1862L52.0077 84.5733L61.2993 73.0213V68.4414H61.2928Z" fill="#F7EFEE"/>
<path d="M42.7083 68.4414C42.7083 68.4414 37.6078 69.0345 33.6144 75.4069L43.5848 89.1994C44.3888 90.3065 45.9901 90.4449 46.972 89.4893L52 84.5733L42.7083 73.0213V68.4414Z" fill="#F7EFEE"/>
</g>
</g>
<defs>
<clipPath id="clip0_1174_2609">
<rect width="104" height="104" rx="52" transform="matrix(-1 0 0 1 104 0)" fill="white"/>
</clipPath>
<clipPath id="clip1_1174_2609">
<rect width="82.3333" height="91.5525" fill="white" transform="matrix(-1 0 0 1 93.168 14.082)"/>
</clipPath>
</defs>
</svg>
