<svg xmlns="http://www.w3.org/2000/svg" width="48" height="48" viewBox="0 0 48 48" fill="none">
    <path fill-rule="evenodd" clip-rule="evenodd" d="M16.8 7.8C16.8 6.80589 15.9941 6 15 6C14.0059 6 13.2 6.80589 13.2 7.8V9.6H11.4C8.41766 9.6 6 12.0177 6 15V36.6C6 39.5823 8.41766 42 11.4 42H36.6C39.5823 42 42 39.5823 42 36.6V15C42 12.0177 39.5823 9.6 36.6 9.6H34.8V7.8C34.8 6.80589 33.9941 6 33 6C32.0059 6 31.2 6.80589 31.2 7.8V9.6H16.8V7.8ZM32.4728 23.4728C33.1757 22.7698 33.1757 21.6302 32.4728 20.9272C31.7698 20.2243 30.6302 20.2243 29.9272 20.9272L22.2 28.6544L18.9728 25.4272C18.2698 24.7243 17.1302 24.7243 16.4272 25.4272C15.7243 26.1302 15.7243 27.2698 16.4272 27.9728L20.9272 32.4728C21.6302 33.1757 22.7698 33.1757 23.4728 32.4728L32.4728 23.4728Z" fill="#ADB5BD"/>
</svg>