<svg xmlns="http://www.w3.org/2000/svg" width="48" height="48" viewBox="0 0 48 48" fill="none">
    <path fill-rule="evenodd" clip-rule="evenodd" d="M24 42.7642C33.3595 42.7642 40.9469 35.0367 40.9469 25.5043C40.9469 15.9719 33.3595 8.24433 24 8.24433C14.6405 8.24433 7.05313 15.9719 7.05313 25.5043C7.05313 35.0367 14.6405 42.7642 24 42.7642ZM26.1184 16.8743C26.1184 15.6828 25.1699 14.7168 24 14.7168C22.8301 14.7168 21.8816 15.6828 21.8816 16.8743V24.6106C21.8816 25.755 22.328 26.8526 23.1225 27.6618L26.7388 31.3449C27.5661 32.1874 28.9074 32.1874 29.7346 31.3449C30.5619 30.5023 30.5619 29.1363 29.7346 28.2937L26.1184 24.6106V16.8743Z" fill="white"/>
    <path d="M14.3955 6.27009C13.866 5.20986 12.5867 4.77936 11.5979 5.41243C8.64771 7.30137 6.15054 9.84083 4.2914 12.8427C3.66832 13.8487 4.08907 15.1524 5.12927 15.6932C6.16946 16.234 7.4337 15.8053 8.07653 14.8123C9.50404 12.607 11.3586 10.721 13.526 9.27046C14.5021 8.61726 14.9249 7.33032 14.3955 6.27009Z" fill="white"/>
    <path d="M33.6045 6.27009C34.134 5.20986 35.4133 4.77936 36.4021 5.41243C39.3523 7.30137 41.8495 9.84083 43.7086 12.8427C44.3317 13.8487 43.9109 15.1524 42.8707 15.6932C41.8305 16.234 40.5663 15.8053 39.9235 14.8123C38.496 12.607 36.6414 10.721 34.474 9.27046C33.4979 8.61726 33.0751 7.33032 33.6045 6.27009Z" fill="white"/>
</svg>