<svg xmlns="http://www.w3.org/2000/svg" width="25" height="24" viewBox="0 0 25 24" fill="none">
    <path d="M10.9399 11.09C11.0787 11.23 11.2438 11.341 11.4258 11.4168C11.6077 11.4926 11.8029 11.5317 12 11.5317C12.1971 11.5317 12.3923 11.4926 12.5742 11.4168C12.7562 11.341 12.9213 11.23 13.0601 11.09L17.5396 6.61053C17.6828 6.47131 17.7971 6.30526 17.876 6.12186C17.955 5.93846 17.9971 5.74131 17.9999 5.54165C18.0026 5.34199 17.966 5.14374 17.8922 4.95821C17.8184 4.77269 17.7087 4.60353 17.5695 4.46039C17.4303 4.31725 17.2642 4.20293 17.0808 4.12396C16.8974 4.04499 16.7002 4.00292 16.5006 4.00015C16.3009 3.99737 16.1027 4.03395 15.9172 4.1078C15.7316 4.18164 15.5625 4.29131 15.4193 4.43053L12 7.92451L8.58067 4.43053C8.29158 4.14936 7.90264 3.99455 7.49941 4.00015C7.09618 4.00575 6.71169 4.1713 6.43053 4.46039C6.14936 4.74948 5.99455 5.13842 6.00015 5.54165C6.00575 5.94488 6.1713 6.32937 6.46039 6.61053L10.9399 11.09ZM15.4193 12.7026L12 16.1369L8.58067 12.7026C8.29158 12.4214 7.90264 12.2666 7.49941 12.2722C7.09618 12.2778 6.71169 12.4434 6.43053 12.7325C6.14936 13.0216 5.99455 13.4105 6.00015 13.8137C6.00575 14.217 6.1713 14.6015 6.46039 14.8826L10.9399 19.3621C11.0787 19.502 11.2438 19.6131 11.4258 19.6889C11.6077 19.7647 11.8029 19.8038 12 19.8038C12.1971 19.8038 12.3923 19.7647 12.5742 19.6889C12.7562 19.6131 12.9213 19.502 13.0601 19.3621L17.5396 14.8826C17.8208 14.6015 17.9787 14.2201 17.9787 13.8225C17.9787 13.4249 17.8208 13.0435 17.5396 12.7623C17.2584 12.4812 16.8771 12.3232 16.4795 12.3232C16.0818 12.3232 15.7005 12.4812 15.4193 12.7623V12.7026Z" fill="#8B95A1"/>
</svg>