<svg xmlns="http://www.w3.org/2000/svg" width="45" height="44" viewBox="0 0 45 44" fill="none">
    <path fill-rule="evenodd" clip-rule="evenodd" d="M38.5625 22C38.5625 30.8366 31.3991 38 22.5625 38C13.7259 38 6.5625 30.8366 6.5625 22C6.5625 13.1634 13.7259 6 22.5625 6C31.3991 6 38.5625 13.1634 38.5625 22ZM22.5625 20.4C23.4462 20.4 24.1625 21.1163 24.1625 22V30.0014C24.1625 30.8851 23.4462 31.6014 22.5625 31.6014C21.6788 31.6014 20.9625 30.8851 20.9625 30.0014V22C20.9625 21.1163 21.6788 20.4 22.5625 20.4ZM22.5625 17.2C23.4462 17.2 24.1625 16.4837 24.1625 15.6C24.1625 14.7163 23.4462 14 22.5625 14C21.6788 14 20.9625 14.7163 20.9625 15.6C20.9625 16.4837 21.6788 17.2 22.5625 17.2Z" fill="#6F767E"/>
</svg>