<svg xmlns="http://www.w3.org/2000/svg" width="76" height="76" viewBox="0 0 76 76" fill="none">
    <g clip-path="url(#clip0_1417_680)">
        <path d="M38 0C30.4843 0 23.1374 2.22866 16.8883 6.40415C10.6393 10.5796 5.76872 16.5144 2.89259 23.458C0.0164648 30.4016 -0.736062 38.0421 0.730176 45.4134C2.19641 52.7847 5.81556 59.5557 11.13 64.87C16.4444 70.1844 23.2153 73.8036 30.5866 75.2698C37.9579 76.7361 45.5984 75.9835 52.542 73.1074C59.4856 70.2313 65.4204 65.3607 69.5958 59.1117C73.7713 52.8626 76 45.5157 76 38C76 27.9218 71.9964 18.2563 64.8701 11.1299C57.7437 4.00356 48.0782 0 38 0ZM55.86 27.2756L37.1133 53.2844C36.5549 54.0383 35.74 54.5618 34.8222 54.7562C33.9045 54.9507 32.9473 54.8026 32.1311 54.34L21.3645 48.0489C20.491 47.5226 19.8624 46.6708 19.617 45.6811C19.3715 44.6913 19.5293 43.6446 20.0556 42.7711C20.5819 41.8977 21.4336 41.2691 22.4234 41.0236C23.4132 40.7781 24.4599 40.9359 25.3333 41.4622L32.9756 46.0222L49.8645 22.8422C50.4913 22.2143 51.318 21.8255 52.2015 21.7432C53.0849 21.6609 53.9692 21.8903 54.7012 22.3917C55.4332 22.893 55.9667 23.6347 56.2092 24.4882C56.4517 25.3417 56.3879 26.2531 56.0289 27.0644L55.86 27.2756Z" fill="#ADB5BD"/>
    </g>
    <defs>
        <clipPath id="clip0_1417_680">
            <rect width="76" height="76" fill="white"/>
        </clipPath>
    </defs>
</svg>