<svg xmlns="http://www.w3.org/2000/svg" width="48" height="48" viewBox="0 0 48 48" fill="none">
    <path d="M29.4318 22.7135L21.2865 14.5682C21.1079 14.3882 20.8955 14.2453 20.6614 14.1477C20.4273 14.0502 20.1762 14 19.9226 14C19.669 14 19.4179 14.0502 19.1838 14.1477C18.9497 14.2453 18.7372 14.3882 18.5586 14.5682C18.2008 14.9282 18 15.4151 18 15.9226C18 16.4301 18.2008 16.917 18.5586 17.2769L25.3591 24.0774L18.5586 30.8779C18.2008 31.2379 18 31.7248 18 32.2323C18 32.7398 18.2008 33.2267 18.5586 33.5866C18.7381 33.7647 18.951 33.9055 19.1851 34.0011C19.4191 34.0967 19.6697 34.1452 19.9226 34.1437C20.1754 34.1452 20.426 34.0967 20.6601 34.0011C20.8941 33.9055 21.107 33.7647 21.2865 33.5866L29.4318 25.4414C29.6118 25.2628 29.7547 25.0503 29.8523 24.8162C29.9498 24.5821 30 24.331 30 24.0774C30 23.8238 29.9498 23.5727 29.8523 23.3386C29.7547 23.1045 29.6118 22.8921 29.4318 22.7135Z" fill="#6B7684"/>
</svg>