<svg xmlns="http://www.w3.org/2000/svg" width="120" height="120" viewBox="0 0 120 120" fill="none">
    <path d="M107.936 97.8943L91.2553 81.2135C96.8156 73.5928 99.8215 64.4339 99.8215 54.8234C99.8215 42.8279 95.1503 31.5522 86.6688 23.0707C78.1732 14.5892 66.8974 9.91797 54.9019 9.91797C42.9064 9.91797 31.6307 14.5892 23.1351 23.0707C5.62165 40.5841 5.62165 69.0769 23.1351 86.5903C31.6166 95.0718 42.8923 99.743 54.8878 99.743C64.4983 99.743 73.6572 96.7371 81.2779 91.1768L97.9728 107.858C99.3417 109.226 101.148 109.918 102.954 109.918C104.761 109.918 106.567 109.226 107.936 107.858C110.688 105.106 110.688 100.646 107.936 97.8943ZM54.9019 85.6589C46.6744 85.6589 38.9268 82.4554 33.1125 76.627C21.0888 64.6033 21.0888 45.0577 33.1125 33.034C38.9409 27.2056 46.6744 24.0021 54.916 24.0021C63.1576 24.0021 70.8912 27.2056 76.7055 33.034C82.5198 38.8624 85.7374 46.5959 85.7374 54.8234C85.7374 63.0509 82.5339 70.7986 76.7055 76.627C70.8771 82.4554 63.1435 85.6589 54.9019 85.6589Z" fill="#4E5968"/>
</svg>