<svg xmlns="http://www.w3.org/2000/svg" width="120" height="120" viewBox="0 0 120 120" fill="none">
    <path d="M34.2423 85.2508H85.7591H94.4229H103.298C97.0474 82.5416 95.0155 69.673 94.4229 64.1701V52.3598C94.4229 35.8931 82.8524 22.1215 67.3875 18.7492C67.4016 18.6081 67.4157 18.467 67.4157 18.3258C67.4157 14.2339 64.0998 10.918 60.0078 10.918C55.9158 10.918 52.5998 14.2339 52.5998 18.3258C52.5998 18.467 52.6139 18.6081 52.6281 18.7492C37.1631 22.1074 25.5785 35.879 25.5785 52.3457V64.1559C24.9859 69.6589 22.9681 82.5416 16.7031 85.2508H25.5785H34.2423Z" fill="#4E5968"/>
    <path d="M105.344 88.4961H14.6564C12.0883 88.4961 10 90.5844 10 93.1525C10 95.7205 12.0883 97.8089 14.6564 97.8089H46.5458C47.59 104.314 53.2059 109.28 59.9929 109.28C66.78 109.28 72.3959 104.314 73.4401 97.8089H105.344C107.912 97.8089 110 95.7205 110 93.1525C110 90.5844 107.912 88.4961 105.344 88.4961Z" fill="#4E5968"/>
</svg>