<svg xmlns="http://www.w3.org/2000/svg" width="120" height="120" viewBox="0 0 120 120" fill="none">
    <path d="M89.5575 22.3068C81.5223 14.3204 70.8513 9.91797 59.5 9.91797C48.1487 9.91797 37.4777 14.3204 29.4567 22.3068C21.4215 30.3074 17 40.9325 17 52.2349C17 63.5373 21.4215 74.1624 29.4425 82.1629L55.7729 113.38C56.7649 114.368 58.097 114.918 59.4858 114.918C60.8746 114.918 62.2209 114.368 63.1987 113.38L89.5575 82.1629C97.5927 74.1765 102.014 63.5514 102.014 52.2349C102 40.9325 97.5785 30.3074 89.5575 22.3068ZM49.8918 42.6681C52.4568 40.1141 55.8721 38.7031 59.5 38.7031C63.1279 38.7031 66.5432 40.1141 69.1082 42.6681C71.6732 45.222 73.0904 48.6226 73.0904 52.2349C73.0904 55.8471 71.6732 59.2477 69.1082 61.8017C66.5432 64.3557 63.1279 65.7667 59.5 65.7667C55.8721 65.7667 52.4568 64.3557 49.8918 61.8017C47.3268 59.2477 45.9096 55.8471 45.9096 52.2349C45.9096 48.6226 47.3268 45.222 49.8918 42.6681Z" fill="#4E5968"/>
</svg>