<svg xmlns="http://www.w3.org/2000/svg" width="120" height="120" viewBox="0 0 120 120" fill="none">
    <path d="M104.501 20.2185H89.9862V14.6308C89.9862 12.0345 87.8846 9.91797 85.3067 9.91797C82.7288 9.91797 80.6272 12.0204 80.6272 14.6308V20.2185H38.5395V14.6308C38.5395 12.0345 36.4379 9.91797 33.86 9.91797C31.282 9.91797 29.1804 12.0204 29.1804 14.6308V20.2185H14.6795C12.0876 20.2185 10 22.321 10 24.9314V105.205C10 107.801 12.0876 109.918 14.6795 109.918H104.501C107.079 109.918 109.181 107.816 109.181 105.205V24.9314C109.167 22.321 107.079 20.2185 104.501 20.2185ZM99.8216 100.492H19.359V42.8938H99.8216V100.492Z" fill="white"/>
    <path d="M39.3936 69.7317L48.0241 76.0531L44.7316 86.2831C44.1852 87.9622 44.7876 89.7966 46.2027 90.8407C47.6178 91.8708 49.5372 91.8708 50.9523 90.8407L59.5968 84.5193L68.2413 90.8407C68.9418 91.3628 69.7825 91.6168 70.6231 91.6168C71.4637 91.6168 72.2904 91.3628 73.0049 90.8407C74.42 89.8107 75.0084 87.9622 74.476 86.2831L71.1835 76.0531L79.828 69.7317C81.2431 68.7016 81.8315 66.8532 81.2991 65.174C80.7527 63.4949 79.2116 62.3661 77.4462 62.3661H66.7702L63.4777 52.1361C62.9313 50.457 61.3901 49.3281 59.6388 49.3281C57.8875 49.3281 56.3323 50.4711 55.7859 52.1361L52.4934 62.3661H41.8174C40.0661 62.3661 38.5109 63.509 37.9645 65.174C37.3761 66.8532 37.9645 68.6875 39.3936 69.7317Z" fill="white"/>
</svg>