<svg xmlns="http://www.w3.org/2000/svg" width="72" height="72" viewBox="0 0 72 72" fill="none">
    <path d="M50.1582 27.8379C49.625 27.3012 48.9037 27 48.1519 27C47.4 27 46.6787 27.3012 46.1455 27.8379L35.9289 38.0387L25.8545 27.8379C25.3213 27.3012 24.6 27 23.8481 27C23.0963 27 22.375 27.3012 21.8418 27.8379C21.5751 28.1058 21.3633 28.4245 21.2189 28.7757C21.0744 29.1268 21 29.5035 21 29.8839C21 30.2643 21.0744 30.6409 21.2189 30.992C21.3633 31.3432 21.5751 31.6619 21.8418 31.9298L33.9083 44.1476C34.1728 44.4177 34.4876 44.6321 34.8344 44.7784C35.1812 44.9247 35.5532 45 35.9289 45C36.3045 45 36.6765 44.9247 37.0233 44.7784C37.3701 44.6321 37.6849 44.4177 37.9494 44.1476L50.1582 31.9298C50.4249 31.6619 50.6367 31.3432 50.7811 30.992C50.9256 30.6409 51 30.2643 51 29.8839C51 29.5035 50.9256 29.1268 50.7811 28.7757C50.6367 28.4245 50.4249 28.1058 50.1582 27.8379Z" fill="#ADB5BD"/>
</svg>