<svg xmlns="http://www.w3.org/2000/svg" width="41" height="40" viewBox="0 0 41 40" fill="none">
    <path d="M20.5039 3C17.1416 3 13.8549 3.99703 11.0592 5.86502C8.26358 7.733 6.08465 10.388 4.79796 13.4944C3.51127 16.6007 3.17462 20.0189 3.83056 23.3165C4.48651 26.6142 6.10561 29.6433 8.4831 32.0208C10.8606 34.3983 13.8897 36.0174 17.1874 36.6733C20.4851 37.3293 23.9032 36.9926 27.0095 35.7059C30.1159 34.4193 32.7709 32.2403 34.6389 29.4447C36.5069 26.6491 37.5039 23.3623 37.5039 20C37.5039 17.7675 37.0642 15.5569 36.2099 13.4944C35.3555 11.4318 34.1033 9.55778 32.5247 7.97918C30.9461 6.40059 29.0721 5.14838 27.0095 4.29405C24.947 3.43972 22.7364 3 20.5039 3ZM20.5039 33.6C17.8141 33.6 15.1847 32.8024 12.9482 31.308C10.7116 29.8136 8.9685 27.6896 7.93915 25.2045C6.9098 22.7194 6.64048 19.9849 7.16523 17.3468C7.68999 14.7086 8.98527 12.2853 10.8873 10.3833C12.7893 8.48135 15.2125 7.18608 17.8507 6.66132C20.4888 6.13656 23.2233 6.40589 25.7084 7.43524C28.1935 8.46459 30.3175 10.2077 31.8119 12.4442C33.3063 14.6808 34.1039 17.3102 34.1039 20C34.1039 23.6069 32.6711 27.0662 30.1206 29.6166C27.5701 32.1671 24.1109 33.6 20.5039 33.6Z" fill="#0D65F8"/>
    <path d="M18.8206 13.2L18.8206 18.3L13.7206 18.3C13.2697 18.3 12.8373 18.4791 12.5185 18.7979C12.1997 19.1167 12.0206 19.5491 12.0206 20C12.0206 20.4509 12.1997 20.8833 12.5185 21.2021C12.8373 21.5209 13.2697 21.7 13.7206 21.7H18.8206L18.8206 26.8C18.8206 27.2509 18.9997 27.6833 19.3185 28.0021C19.6373 28.3209 20.0697 28.5 20.5206 28.5C20.9714 28.5 21.4038 28.3209 21.7226 28.0021C22.0415 27.6833 22.2206 27.2509 22.2206 26.8L22.2206 21.7H27.3206C27.7714 21.7 28.2038 21.5209 28.5227 21.2021C28.8415 20.8833 29.0206 20.4509 29.0206 20C29.0206 19.5491 28.8415 19.1167 28.5226 18.7979C28.2038 18.4791 27.7714 18.3 27.3206 18.3H22.2206V13.2C22.2206 12.7491 22.0415 12.3167 21.7226 11.9979C21.4038 11.6791 20.9714 11.5 20.5206 11.5C20.0697 11.5 19.6373 11.6791 19.3185 11.9979C18.9997 12.3167 18.8206 12.7491 18.8206 13.2Z" fill="#0D65F8"/>
</svg>