<svg xmlns="http://www.w3.org/2000/svg" width="37" height="36" viewBox="0 0 37 36" fill="none">
    <path d="M26.2212 14.1833L28.3656 16.3333L11.2476 16.3333C10.8101 16.3333 10.3906 16.5089 10.0812 16.8215C9.77187 17.134 9.59808 17.558 9.59808 18C9.59808 18.442 9.77187 18.8659 10.0812 19.1785C10.3906 19.4911 10.8101 19.6667 11.2476 19.6667L28.3656 19.6667L26.2212 21.8167C26.0666 21.9716 25.9439 22.1559 25.8601 22.359C25.7764 22.5621 25.7333 22.78 25.7333 23C25.7333 23.22 25.7764 23.4379 25.8601 23.641C25.9439 23.8441 26.0666 24.0284 26.2212 24.1833C26.3745 24.3395 26.557 24.4635 26.758 24.5482C26.959 24.6328 27.1746 24.6763 27.3923 24.6763C27.6101 24.6763 27.8257 24.6328 28.0267 24.5482C28.2277 24.4635 28.4102 24.3395 28.5635 24.1833L33.5121 19.1833C33.6667 19.0284 33.7894 18.8441 33.8731 18.641C33.9569 18.4379 34 18.22 34 18C34 17.78 33.9569 17.5621 33.8731 17.359C33.7894 17.1559 33.6667 16.9716 33.5121 16.8167L28.5635 11.8167C28.2529 11.5028 27.8316 11.3265 27.3923 11.3265C26.9531 11.3265 26.5318 11.5028 26.2212 11.8167C25.9106 12.1305 25.7361 12.5562 25.7361 13C25.7361 13.4438 25.9106 13.8695 26.2212 14.1833ZM24.4438 28L24.4438 24.6667C24.4438 24.2246 24.27 23.8007 23.9606 23.4882C23.6513 23.1756 23.2317 23 22.7943 23C22.3568 23 21.9372 23.1756 21.6279 23.4882C21.3185 23.8007 21.1447 24.2246 21.1447 24.6667L21.1447 28C21.1447 28.442 20.9709 28.866 20.6616 29.1785C20.3523 29.4911 19.9327 29.6667 19.4952 29.6667L7.94856 29.6667C7.51108 29.6667 7.09152 29.4911 6.78217 29.1785C6.47283 28.866 6.29904 28.442 6.29904 28L6.29904 8C6.29904 7.55797 6.47283 7.13405 6.78217 6.82149C7.09152 6.50893 7.51108 6.33333 7.94856 6.33333L19.4952 6.33333C19.9327 6.33333 20.3523 6.50893 20.6616 6.82149C20.9709 7.13405 21.1447 7.55797 21.1447 8L21.1447 11.3333C21.1447 11.7754 21.3185 12.1993 21.6279 12.5118C21.9372 12.8244 22.3568 13 22.7943 13C23.2317 13 23.6513 12.8244 23.9606 12.5118C24.27 12.1993 24.4438 11.7754 24.4438 11.3333L24.4438 8C24.4438 6.67392 23.9224 5.40215 22.9944 4.46447C22.0663 3.52678 20.8077 3 19.4952 3L7.94856 3C6.63612 3 5.37744 3.52678 4.4494 4.46446C3.52136 5.40215 3 6.67392 3 8L3 28C3 29.3261 3.52136 30.5979 4.4494 31.5355C5.37743 32.4732 6.63612 33 7.94856 33L19.4952 33C20.8077 33 22.0663 32.4732 22.9944 31.5355C23.9224 30.5979 24.4438 29.3261 24.4438 28Z" fill="#229829"/>
</svg>