<svg xmlns="http://www.w3.org/2000/svg" width="37" height="36" viewBox="0 0 37 36" fill="none">
    <path fill-rule="evenodd" clip-rule="evenodd" d="M8.51483 2.05078H20.5544C21.7518 2.05078 22.9002 2.5407 23.7468 3.41276C24.5935 4.28481 25.0692 5.46758 25.0692 6.70085V11.3509C25.0692 11.762 24.9107 12.1563 24.6284 12.447C24.3462 12.7376 23.9634 12.9009 23.5643 12.9009C23.1651 12.9009 22.7823 12.7376 22.5001 12.447C22.2179 12.1563 22.0593 11.762 22.0593 11.3509V6.70085C22.0593 6.28976 21.9008 5.89551 21.6185 5.60482C21.3363 5.31414 20.9535 5.15083 20.5544 5.15083H8.51483C8.11569 5.15083 7.73291 5.31414 7.45068 5.60482C7.16844 5.89551 7.00989 6.28976 7.00989 6.70085V28.4012C7.00989 28.8123 7.16844 29.2065 7.45068 29.4972C7.73291 29.7879 8.11569 29.9512 8.51483 29.9512H20.5544C20.9535 29.9512 21.3363 29.7879 21.6185 29.4972C21.9008 29.2065 22.0593 28.8123 22.0593 28.4012V23.7511C22.0593 23.34 22.2179 22.9458 22.5001 22.6551C22.7823 22.3644 23.1651 22.2011 23.5643 22.2011C23.9634 22.2011 24.3462 22.3644 24.6284 22.6551C24.9107 22.9458 25.0692 23.34 25.0692 23.7511V28.4012C25.0692 29.6345 24.5935 30.8172 23.7468 31.6893C22.9002 32.5613 21.7518 33.0513 20.5544 33.0513H8.51483C7.31742 33.0513 6.16906 32.5613 5.32236 31.6893C4.47567 30.8172 4 29.6345 4 28.4012V6.70085C4 5.46758 4.47567 4.28481 5.32236 3.41276C6.16906 2.5407 7.31742 2.05078 8.51483 2.05078ZM15.1709 15.4919L17.3223 13.2702C17.634 12.9459 17.809 12.5061 17.809 12.0474C17.809 11.5888 17.634 11.1489 17.3223 10.8246C17.0107 10.5003 16.588 10.3181 16.1473 10.3181C15.7066 10.3181 15.2839 10.5003 14.9723 10.8246L10.0074 15.9914C9.8523 16.1515 9.72918 16.342 9.64516 16.5518C9.56114 16.7617 9.51788 16.9868 9.51788 17.2142C9.51788 17.4415 9.56114 17.6666 9.64516 17.8765C9.72918 18.0864 9.8523 18.2769 10.0074 18.437L14.9723 23.6037C15.1261 23.7651 15.3092 23.8933 15.5109 23.9807C15.7125 24.0681 15.9288 24.1132 16.1473 24.1132C16.3658 24.1132 16.5821 24.0681 16.7838 23.9807C16.9854 23.8933 17.1685 23.7651 17.3223 23.6037C17.4774 23.4436 17.6006 23.2531 17.6846 23.0433C17.7686 22.8334 17.8119 22.6083 17.8119 22.3809C17.8119 22.1536 17.7686 21.9285 17.6846 21.7186C17.6006 21.5087 17.4774 21.3182 17.3223 21.1581L15.1709 18.9364H32.3453C32.7842 18.9364 33.2051 18.755 33.5155 18.432C33.8259 18.109 34.0002 17.6709 34.0002 17.2142C34.0002 16.7574 33.8259 16.3194 33.5155 15.9964C33.2051 15.6734 32.7842 15.4919 32.3453 15.4919L15.1709 15.4919Z" fill="#229829"/>
</svg>