<svg xmlns="http://www.w3.org/2000/svg" width="41" height="40" viewBox="0 0 41 40" fill="none">
    <path d="M20.5039 3C17.1416 3 13.8549 3.99703 11.0592 5.86502C8.26358 7.733 6.08465 10.388 4.79796 13.4944C3.51127 16.6007 3.17462 20.0189 3.83056 23.3165C4.48651 26.6142 6.10561 29.6433 8.4831 32.0208C10.8606 34.3983 13.8897 36.0174 17.1874 36.6733C20.4851 37.3293 23.9032 36.9926 27.0095 35.7059C30.1159 34.4193 32.7709 32.2403 34.6389 29.4447C36.5069 26.6491 37.5039 23.3623 37.5039 20C37.5039 17.7675 37.0642 15.5569 36.2099 13.4944C35.3555 11.4318 34.1033 9.55778 32.5247 7.97918C30.9461 6.40059 29.0721 5.14838 27.0095 4.29405C24.947 3.43972 22.7364 3 20.5039 3ZM20.5039 33.6C17.8141 33.6 15.1847 32.8024 12.9482 31.308C10.7116 29.8136 8.9685 27.6896 7.93915 25.2045C6.9098 22.7194 6.64048 19.9849 7.16523 17.3468C7.68999 14.7086 8.98527 12.2853 10.8873 10.3833C12.7893 8.48135 15.2125 7.18608 17.8507 6.66132C20.4888 6.13656 23.2233 6.40589 25.7084 7.43524C28.1935 8.46459 30.3175 10.2077 31.8119 12.4442C33.3063 14.6808 34.1039 17.3102 34.1039 20C34.1039 23.6069 32.6711 27.0662 30.1206 29.6166C27.5701 32.1671 24.1109 33.6 20.5039 33.6Z" fill="#454545"/>
    <path d="M24.1284 13.9896L20.5222 17.5958L16.9159 13.9896C16.5971 13.6708 16.1647 13.4917 15.7138 13.4917C15.263 13.4917 14.8306 13.6708 14.5117 13.9896C14.1929 14.3084 14.0138 14.7408 14.0138 15.1917C14.0138 15.6425 14.1929 16.0749 14.5117 16.3938L18.118 20L14.5117 23.6062C14.1929 23.9251 14.0138 24.3575 14.0138 24.8083C14.0138 25.2592 14.1929 25.6916 14.5117 26.0104C14.8306 26.3292 15.263 26.5083 15.7138 26.5083C16.1647 26.5083 16.5971 26.3292 16.9159 26.0104L20.5222 22.4042L24.1284 26.0104C24.4472 26.3292 24.8796 26.5083 25.3305 26.5083C25.7813 26.5083 26.2137 26.3292 26.5326 26.0104C26.8514 25.6916 27.0305 25.2592 27.0305 24.8083C27.0305 24.3575 26.8514 23.9251 26.5326 23.6062L22.9263 20L26.5326 16.3938C26.8514 16.0749 27.0305 15.6425 27.0305 15.1917C27.0305 14.7408 26.8514 14.3084 26.5326 13.9896C26.2137 13.6708 25.7813 13.4917 25.3305 13.4917C24.8796 13.4917 24.4472 13.6708 24.1284 13.9896Z" fill="#454545"/>
</svg>