<svg xmlns="http://www.w3.org/2000/svg" width="41" height="40" viewBox="0 0 41 40" fill="none">
    <path d="M24.512 23.791C23.3756 24.7072 21.9598 25.2069 20.5 25.2069C19.0402 25.2069 17.6244 24.7072 16.488 23.791C16.1408 23.5024 15.6933 23.3636 15.2437 23.4051C14.7942 23.4465 14.3796 23.6648 14.091 24.012C13.8025 24.3592 13.6636 24.8067 13.7051 25.2563C13.7465 25.7058 13.9648 26.1204 14.312 26.409C16.0483 27.8584 18.2383 28.6524 20.5 28.6524C22.7618 28.6524 24.9517 27.8584 26.688 26.409C27.0352 26.1204 27.2535 25.7058 27.2949 25.2563C27.3364 24.8067 27.1976 24.3592 26.909 24.012C26.7661 23.8401 26.5908 23.698 26.393 23.5939C26.1952 23.4897 25.9789 23.4256 25.7563 23.4051C25.3068 23.3636 24.8592 23.5024 24.512 23.791ZM15.4 18.3C15.7362 18.3 16.0649 18.2003 16.3445 18.0135C16.624 17.8267 16.8419 17.5612 16.9706 17.2506C17.0993 16.9399 17.1329 16.5981 17.0673 16.2683C17.0017 15.9386 16.8398 15.6357 16.6021 15.3979C16.3643 15.1602 16.0614 14.9983 15.7317 14.9327C15.4019 14.8671 15.0601 14.9007 14.7494 15.0294C14.4388 15.1581 14.1733 15.376 13.9865 15.6555C13.7997 15.9351 13.7 16.2638 13.7 16.6C13.7 17.0509 13.8791 17.4833 14.1979 17.8021C14.5167 18.1209 14.9491 18.3 15.4 18.3ZM25.6 14.9C25.2638 14.9 24.9351 14.9997 24.6555 15.1865C24.376 15.3733 24.1581 15.6388 24.0294 15.9494C23.9007 16.2601 23.8671 16.6019 23.9327 16.9317C23.9983 17.2614 24.1602 17.5643 24.3979 17.8021C24.6357 18.0398 24.9386 18.2017 25.2684 18.2673C25.5981 18.3329 25.9399 18.2993 26.2506 18.1706C26.5612 18.0419 26.8267 17.824 27.0135 17.5445C27.2003 17.2649 27.3 16.9362 27.3 16.6C27.3 16.1491 27.1209 15.7167 26.8021 15.3979C26.4833 15.0791 26.0509 14.9 25.6 14.9ZM20.5 3C17.1377 3 13.8509 3.99703 11.0553 5.86502C8.25968 7.733 6.08074 10.388 4.79406 13.4944C3.50737 16.6007 3.17071 20.0189 3.82666 23.3165C4.48261 26.6142 6.1017 29.6433 8.47919 32.0208C10.8567 34.3983 13.8858 36.0174 17.1835 36.6733C20.4811 37.3293 23.8993 36.9926 27.0056 35.7059C30.112 34.4193 32.767 32.2403 34.635 29.4447C36.503 26.6491 37.5 23.3623 37.5 20C37.5 17.7675 37.0603 15.5569 36.206 13.4944C35.3516 11.4318 34.0994 9.55778 32.5208 7.97918C30.9422 6.40059 29.0682 5.14838 27.0056 4.29405C24.9431 3.43972 22.7325 3 20.5 3ZM20.5 33.6C17.8102 33.6 15.1808 32.8024 12.9443 31.308C10.7077 29.8136 8.9646 27.6896 7.93525 25.2045C6.90589 22.7194 6.63657 19.9849 7.16133 17.3468C7.68609 14.7086 8.98136 12.2853 10.8834 10.3833C12.7853 8.48135 15.2086 7.18608 17.8468 6.66132C20.4849 6.13656 23.2194 6.40589 25.7045 7.43524C28.1896 8.46459 30.3136 10.2077 31.808 12.4442C33.3024 14.6808 34.1 17.3102 34.1 20C34.1 23.6069 32.6671 27.0662 30.1167 29.6166C27.5662 32.1671 24.1069 33.6 20.5 33.6Z" fill="#229829"/>
</svg>