<svg xmlns="http://www.w3.org/2000/svg" width="80" height="80" viewBox="0 0 80 80" fill="none">
    <path fill-rule="evenodd" clip-rule="evenodd" d="M28.2416 13.5396C28.2416 11.9159 26.9253 10.5996 25.3016 10.5996C23.6778 10.5996 22.3616 11.9159 22.3616 13.5396V16.4796H19.4216C14.5504 16.4796 10.6016 20.4285 10.6016 25.2996V60.5796C10.6016 65.4508 14.5504 69.3996 19.4216 69.3996H60.5816C65.4527 69.3996 69.4016 65.4508 69.4016 60.5796V25.2996C69.4016 20.4285 65.4527 16.4796 60.5816 16.4796H57.6416V13.5396C57.6416 11.9159 56.3253 10.5996 54.7016 10.5996C53.0778 10.5996 51.7616 11.9159 51.7616 13.5396V16.4796H28.2416V13.5396ZM53.8405 39.1385C54.9886 37.9904 54.9886 36.1289 53.8405 34.9807C52.6923 33.8326 50.8308 33.8326 49.6827 34.9807L37.0616 47.6018L31.7905 42.3307C30.6423 41.1826 28.7808 41.1826 27.6327 42.3307C26.4845 43.4789 26.4845 45.3404 27.6327 46.4885L34.9827 53.8385C36.1308 54.9866 37.9923 54.9866 39.1405 53.8385L53.8405 39.1385Z" fill="white"/>
</svg>