<svg xmlns="http://www.w3.org/2000/svg" width="80" height="80" viewBox="0 0 80 80" fill="none">
    <path d="M28.2416 13.5396C28.2416 11.9159 26.9253 10.5996 25.3016 10.5996C23.6778 10.5996 22.3616 11.9159 22.3616 13.5396V16.4796H19.4216C14.5504 16.4796 10.6016 20.4285 10.6016 25.2996V60.5796C10.6016 65.4508 14.5504 69.3996 19.4216 69.3996H36.6981C38.015 69.3996 38.7252 67.7398 37.9585 66.6692C35.5432 63.2967 34.1216 59.1642 34.1216 54.6996C34.1216 43.3336 43.3355 34.1196 54.7016 34.1196C59.1661 34.1196 63.2987 35.5413 66.6712 37.9566C67.7418 38.7233 69.4016 38.013 69.4016 36.6962V25.2996C69.4016 20.4285 65.4527 16.4796 60.5816 16.4796H57.6416V13.5396C57.6416 11.9159 56.3253 10.5996 54.7016 10.5996C53.0778 10.5996 51.7616 11.9159 51.7616 13.5396V16.4796H28.2416V13.5396Z" fill="white"/>
    <path fill-rule="evenodd" clip-rule="evenodd" d="M69.4016 54.6996C69.4016 46.581 62.8202 39.9996 54.7016 39.9996C46.583 39.9996 40.0016 46.581 40.0016 54.6996C40.0016 62.8182 46.583 69.3996 54.7016 69.3996C62.8202 69.3996 69.4016 62.8182 69.4016 54.6996ZM57.6416 48.8196C57.6416 47.1959 56.3253 45.8796 54.7016 45.8796C53.0778 45.8796 51.7616 47.1959 51.7616 48.8196V54.6996C51.7616 55.4793 52.0713 56.2271 52.6227 56.7785L57.0327 61.1885C58.1808 62.3366 60.0423 62.3366 61.1905 61.1885C62.3386 60.0404 62.3386 58.1789 61.1905 57.0307L57.6416 53.4818V48.8196Z" fill="white"/>
</svg>