<svg xmlns="http://www.w3.org/2000/svg" width="80" height="80" viewBox="0 0 80 80" fill="none">
    <path d="M39.8813 12C44.4984 12 48.2414 15.7608 48.2414 20.4V37.2H34.3078C32.7688 37.2 31.5211 38.4536 31.5211 40C31.5211 41.5464 32.7688 42.8 34.3078 42.8H48.2414V59.6C48.2414 64.2392 44.4984 68 39.8813 68H23.1609C18.5437 68 14.8008 64.2392 14.8008 59.6V20.4C14.8008 15.7608 18.5438 12 23.1609 12H39.8813Z" fill="white"/>
    <path d="M48.2414 42.8L56.8406 42.8L51.8443 47.8201C50.7561 48.9136 50.7561 50.6864 51.8443 51.7799C52.9326 52.8734 54.6971 52.8734 55.7854 51.7799L63.5684 43.9598C65.7449 41.7729 65.7449 38.2271 63.5684 36.0402L55.7854 28.2201C54.6971 27.1266 52.9326 27.1266 51.8443 28.2201C50.7561 29.3136 50.7561 31.0864 51.8443 32.1799L56.8406 37.2L48.2414 37.2V42.8Z" fill="white"/>
</svg>